# xmcd
#
# Track frame offsets:
#	150
#	17727
#	31785
#	51130
#	70220
#	87620
#	108097
#	122973
#	142325
#	161052
#	179820
#	199852
#	219620
#	236556
#	261538
#	295683
#
# Disc length: 4172 seconds
#
# Revision: 0
# Processed by: cddbd v1.5.2PL0 Copyright (c) Steve Scherf et al.
# Submitted via: dBpowerAMP V4.0
#
DISCID=fc104a10
DTITLE=NE-YO - Year of the Gentleman 
DYEAR=2009
DGENRE=R&B
TTITLE0=CLOSER
TTITLE1=NOBODY
TTITLE2=SINGLE
TTITLE3=MAD
TTITLE4=MISS INDEPENDENT
TTITLE5=WHY DOES SHE STAY
TTITLE6=FADE INTO THE BACKGROUND
TTITLE7=SO YOU CAN CRY
TTITLE8=PART OF THE LIST
TTITLE9=BACK TO WHAT YOU KNOW
TTITLE10=LIE TO ME
TTITLE11=STOP THIS WORLD
TTITLE12=WHAT'S THE MATTER
TTITLE13=SHE GOT HER OWN Feat. Jamie foxx and Fabolous
TTITLE14=CLOSER STONEBRIDGE CLUB REMIX
TTITLE15=MISS INDEPENDENT INSTRUMENTAL
EXTD=Year of the Gentleman 
EXTT0=
EXTT1=
EXTT2=
EXTT3=
EXTT4=
EXTT5=
EXTT6=
EXTT7=
EXTT8=
EXTT9=
EXTT10=
EXTT11=
EXTT12=
EXTT13=
EXTT14=
EXTT15=
PLAYORDER=
